<svg viewBox="0 0 160 192" fill="none" xmlns="http://www.w3.org/2000/svg">
  <g clip-path="url(#clip0_1288_1252)">
    <!-- Book Cover -->
    <path d="M0.12699 43.8989C-0.863275 37.1255 4.04575 30.863 11.0915 29.911L113.152 16.1221C120.197 15.1702 126.712 19.8893 127.702 26.6627L147.873 164.635C148.863 171.409 143.954 177.671 136.908 178.623L39.1006 191.837C29.7063 193.107 21.0203 186.814 19.7001 177.784L0.12699 43.8989Z" fill="url(#paint0_linear_1288_1252)"/>
    <!-- Book Pages -->
    <path d="M10.1376 30.5728C9.06487 22.8787 14.3827 15.7647 22.0152 14.6834L124.678 0.138664C132.31 -0.942678 139.367 4.41806 140.44 12.1122L159.862 151.427C160.935 159.121 155.617 166.235 147.985 167.317L45.3224 181.861C37.6899 182.943 30.6329 177.582 29.5602 169.888L10.1376 30.5728Z" fill="white"/>
    <!-- Spine Highlight -->
    <path d="M19.0979 33.7417C18.3346 28.2753 22.1183 23.221 27.5489 22.4527L121.946 9.09852C127.376 8.33025 132.397 12.1389 133.161 17.6054L151.402 148.258C152.165 153.725 148.382 158.779 142.951 159.547L48.5544 172.901C43.1238 173.67 38.1027 169.861 37.3394 164.395L19.0979 33.7417Z" fill="url(#paint1_linear_1288_1252)"/>
    <!-- Calligraphy "English" Text with Artistic Touches -->
    <text x="80" y="110" font-family="Comic Sans MS, Arial, sans-serif" font-size="26" fill="#FFB300" text-anchor="middle">
      <tspan dx="-2" dy="0">E</tspan>
      <tspan dx="5" dy="0">n</tspan>
      <tspan dx="5" dy="0">g</tspan>
      <tspan dx="5" dy="0">l</tspan>
      <tspan dx="5" dy="0">i</tspan>
      <tspan dx="5" dy="0">s</tspan>
      <tspan dx="5" dy="0">h</tspan>
    </text>
    <!-- Calligraphy Stroke Effect (Simulated) -->
    <path d="M78 115 Q80 120 82 115 Q85 110 87 115 Q90 120 92 115" fill="none" stroke="#000000" stroke-width="0.5"/>
    <circle cx="85" cy="110" r="1.5" fill="#FFC107"/>
    <circle cx="90" cy="115" r="1.5" fill="#FFC107"/>
    <!-- Bookmark or Decoration -->
    <path d="M118.649 103.244L56.8226 111.376L57.0613 142.955L123.924 138.375L127.72 133.661L123.686 106.796Z" stroke="#FFC107" stroke-width="2" fill="none"/>
  </g>
  <defs>
    <linearGradient id="paint0_linear_1288_1252" x1="0.447599" y1="16.413" x2="148.448" y2="191.541" gradientUnits="userSpaceOnUse">
      <stop stop-color="#1E88E5"/>
      <stop offset="1" stop-color="#BBDEFB"/>
    </linearGradient>
    <linearGradient id="paint1_linear_1288_1252" x1="11.1858" y1="19.1536" x2="158.875" y2="162.67" gradientUnits="userSpaceOnUse">
      <stop stop-color="#BBDEFB"/>
      <stop offset="1" stop-color="#E3F2FD"/>
    </linearGradient>
    <clipPath id="clip0_1288_1252">
      <rect width="160" height="192" fill="white"/>
    </clipPath>
  </defs>
</svg>