<svg width="200" height="60" viewBox="0 0 200 60" xmlns="http://www.w3.org/2000/svg">
  <!-- Book Icon -->
  <path d="M20 45 C20 35 25 30 30 30 H50 C55 30 60 35 60 45 V50 H20 V45 Z" fill="#007BFF"/>
  <path d="M50 45 C50 35 55 30 60 30 H80 C85 30 90 35 90 45 V50 H50 V45 Z" fill="#007BFF"/>
  <!-- Speech Bubble with 'E' -->
  <path d="M80 25 C80 20 85 15 90 15 C95 15 100 20 100 25 C100 30 95 35 90 35 C85 35 80 30 80 25 Z" fill="#28A745"/>
  <path d="M85 25 H95 M85 20 V30 M90 20 V30" stroke="#FFFFFF" stroke-width="2"/>
  <!-- Text -->
  <text x="110" y="40" font-family="Arial, sans-serif" font-size="20" font-weight="bold" fill="#007BFF">EnglishHub</text>
</svg>